<?xml version="1.0" encoding="UTF-8"?>
<svg version="1.1" viewBox="0 0 1024 1024" width="1024" height="1024" xmlns="http://www.w3.org/2000/svg">
<path transform="translate(0)" d="m0 0h1024v1024h-1024z" fill="#030404"/>
<path transform="translate(0)" d="m0 0h1024v1024h-1024zm248 131-22 3-17 4-12 4-13 7-9 6-12 11-9 10-7 11-6 13-5 17-3 22-1 34v410l1 36 2 28 2 8 5 12 6 10 11 12 11 8 8 4 24 7 26 7 23 6 15 4 16 5 21 5 90 24 18 5 69 18 18 5 9 2h10l53-15 73-19 41-11 88-23 27-7 18-5 16-4 16-6 14-9 8-7 8-10 7-14 4-15 1-15 1-39v-432l-2-31-4-18-6-16-4-8-9-13-15-15-15-10-16-7-11-4-23-4-10-1z"/>
<path transform="translate(248,131)" d="m0 0h529l22 3 13 3 19 7 14 8 10 8 13 13 10 15 8 21 4 18 2 31v432l-1 39-1 15-4 15-7 14-12 14-13 9-12 6-19 6-21 5-19 5-35 9-21 6-47 12-26 7-61 16-48 13-28 8h-10l-25-6-21-6-50-13-18-5-90-24-24-6-21-6-64-17-16-5-9-5-12-9-10-11-8-15-3-8-2-15-1-19-1-36v-410l1-34 3-22 7-22 6-11 9-13 13-13 9-7 11-6 11-5 18-5 18-3zm6 12-20 2-18 4-16 6-11 6-14 11-9 11-7 11-6 14-5 21-1 10-1 33v393l1 52 1 22 3 14 7 14 10 11 14 9 21 7 42 11 71 19 27 7 41 11 24 6 24 7 50 13 25 7h10l43-12 18-5 62-17 30-8 46-12 14-4 22-6 22-5 26-7 15-4 19-5 19-10 11-10 8-14 4-16 2-46v-92l-32-6h-9l2 2 5 1-1 6-2 8v3l-29 2-34 1-55 1h-367l-41-1-5-1-2-7h6l2-2-63-1h-83v-2l7-1 29-9 36-12-2-4-13-12-9-10-5-7 7 6 9 8 16 11 14 8 17 8 22 7 15 3 14 1h38l22-3 21-6 6-2v-2l11-2 41 11 32 8 22 5 7 2 9 1h5 3l4-1 1-1 1 2h3l2-2 1 2 6-1 4 1 6-5 1 3 3-1v-3l-2-1 3-1v2l6-1 4 1v-3l-7-1v-2l-33-6-24-5-77-15-1-1 11-7 3-3 2-1v-2l4-2 6-4 11 1 41 7 48 9 41 7 23 4h22l11-4 4-3 5-3 7-8v-7l-4-4-4-1h-57l-61-4h-10v-2l-2-2 4-1-1-3h-5l-4-1v2l3 1v2h-10v-2l-2-1 1-5-4 1v-3h2l3-6-5 1v4h-4l1 4h-5v2h-2l1-3-5-1v-3h4v3h3v-2h2l-1-3-4 1v-3h4v-4h3v-3l-9-1 1 2h4v2h-2v2l-4-1v-2h-2l1 4v2l-4 4v2h-2v2h-2l-1-2 3-1v-3l-4-1-1-2 5 2h4l-1-4-9-1-3-1 3-7 2-5h2l2-6 3-4 1-4 2-1 3-10 3-6 4-13 4-16 3-20 35-12 12-5 13-4 4-1 5 2h12l8-4 5-9v-2l15-1-10 9-11 8-9 9-4 8-1 3-1 18-10 5-20 7-19 10-11 8-1 3 4 1 1 2h2v3l4 3 1 3h2l2 8h2l2 6-4-3-1-4-3-3-3-6-5-5-3-2h-10l-5 2v2l-4 1 2 4 3 1v3h-3l-1-3h-3v3l3 1 2 6 1 2h2l1 4 9 11 5 4 4-1 9-8v-2l4 2 5-1 6-3v-2l4-1 4-3 5-3 13-7v-2l5-2 14-7 16-4 2-2 5-2 13-8h11l-5 6-7 4-10 9-7 7h-9l-5 5v4l-5 2-10 6-8 5-4 4-20 1-5 3-2 5 1 7 5 3 6 1 60 2 20 1 85 2h34l9-2 13-7v-2l4-2 6-7 4-9-1-4-5-4h-10l-29 6-23 3-64 6-15 1h-12l-1-3-11-2 16 2h18l15-1 1-5-4-6-4-4 6-3 6-5v-2l4-2 11-9 15-13 10-8 6-7 3-7v-13l-4-6-6-5-8-3-18-1 17-6 12-5v-2l6-1 5-1 37 37 8 7 6 5 2 10-42 11-37 10-9 3v2l-3 1h12l48-10 36-8 2 4 7 3h8l7-3 6-4 3-5v-14l-4-8-5-3-1-2-13-4-7-9-14-21-8-13-10-17-13-13-4 2-5 7-7 4v-2l4-2 3-5v-2h2l1-3 5-4 5-10v-6l-2-4-10-1 11-1 2-2v-9l-4-10-4-5-3-3-10-5-4-1h-14l-10 5-6 7-5 11-1 9 2 22-10-20-3-4 3-2-10-4h-13l-10 3-21 7-14 4-6 3-13 10-14 12-5 8-5 5-3 8v5l-21 2-24 3-12 3v5l15-1 36-4 3-1v2l-5 1-12 4-8 4-29 10-2 1-1-25-1-16 96-48 1-2-7 1-45 12-50 14-3 1-3-10-11-22-8-12-10-13-9-10-7-7-8-7-5-4-10-5h-2v-2l-4-2-1-2-6-2-1-2-7-3-4-1v-2l-7-4-19-7-22-6-11-1v-9h9l2-1v-38l-3-3-10-4-13-2h-31l-18 4-10 4v23l2 18 11-1 2-2v-3h2v15l-17 4-21 7-17 8-7 4v-3h2v-2l4-1-2-5-8-12-7-9-7 1-13 9-13 10-7 7-3 2 2 4 1 3 2 1 4 7 9 13 5-2 1-2 3-1v2l-5 2-12 12-11 14-10 16-8 15-6 14v-24l7-14 12-19 11-12-2-5-11-15v-12l7-8 12-11 18-13 5-3 8-1 8 4 9 11 8 10 9-3 16-5-1-15v-38l3-3 16-6 20-4 10-1h12l17 2 15 5 8 6 2 5 1 44 25 7 4-5 7-11 10-15 5-3 7-1 9 4 11 7 18 12 11 8 11-6 15-10 16-10 19-12 17-11 13-8 5 2 25 16 27 18 9-2 20-7 50-17 36-12-51 25-25 13-19 11 5 5 16 10 10 7h2v2l-9 3-2 1v2l-12 2-24-15-19-12-18-11-14-9h-2l2 5 8 11 10 13h-11l-7 1 2 4 9 9 8 1-4 11v3l6 1 25-13 7 1 13 3h4v2l-5 1-19 9-36 16-40 18-16 7-9 4-15 7-10 4 1 4 2 4 6-1 30-12 12-5 11-4v-2l5-1 12-4 8-4 16-6 11-5 9-3 7-3 28-11 2-1v-2l10-2 20-8 8-3 15-6 7-3v-2l10-2 19-8 3-1v-2l10-2 13-6 7-2v-2l7-1v-2l9-2v-2h6l-17 9-21 13-24 15-15 10-34 24-20 15v2l10-3 21-7 17-6v-2l8-1 74-26 19-7 6-2v-2l11-2 3-2v10l-6 2-19 9-19 10-28 14-19 10-6 3v2l10 8 6 8 5 12 2 9-1 14 9-2 20-8 33-13 13-5v11l-5 1-47 16-27 9-1 1 1 7 12-3 35-11 28-9 4-1v86h2l-2 3v12 4l1 6-1 7 1 4v9l-1 4h2v3h-2l1 10 2 1-3 1v13h-11l-10 2 2 4-2 1 1 1h27l11-1v-276l-2-19-4-17-7-16-7-11-11-12-10-8-9-5-5-3-11-4-21-5-18-2z" fill="#F9FAFA"/>
<path transform="translate(332,251)" d="m0 0h22l17 2 22 5 20 7 14 6v2l6 2 15 10 11 9 6 5 7 9 4 4 11 16 3 5 5 7 4 11 4 8 5 16 3 18 1 11v26l-2 18-5 21-4 10-3 9-4 8h-2l-2 6-10 15-11 13-4 5-8 7-13 10-6 4h-2v2l-12 6h-2v2h-4v2l-18 8-17 5-26 4h-24l-22-3-20-5v-2h-5v-2l-7-1-13-6v-2l-5-1-13-8-14-11v-2l-4-2-7-6-7-8-6-7v-2h-2l-7-11-7-12-5-12-4-9-4-15-4-21-1-9v-17l1-16 5-24 4-14 3-5 4-11 6-9 7-11 4-5h2l2-5 7-8 8-8 8-6 3-3h2v-2l12-8 17-9 20-8 15-4 16-3z" fill="#050607"/>
<path transform="translate(333,172)" d="m0 0h12l17 2 15 5 8 6 3 6v44l10 2 15 4 16-24 6-8 8-3 9 2 14 9 18 12 11 8 11-6 15-10 16-10 19-12 17-11 13-8 5 2 25 16 27 18 9-2 20-7 85-29 3 1-53 26-25 13-18 11 32 21v2l-9 4h-2v2l-8 3-6-1-25-16-18-11-25-16-7-4 7 11 13 16v2l-18 1 7 8 4 4 8 2-1 7-3 7h6l25-13 7 1 17 4v2l-24 11-36 16-40 18-16 7-9 4-15 7-10 3 3 6v2l14-5 12-5 10-4 12-5 8-3h3v-2l17-6 8-4 16-6 11-5 9-3 7-3 28-11h2v-2l18-6 12-5 8-3 15-6 7-2v-2l4-2 8-2 17-7h3v-2l12-4 11-5 7-1v-2l7-1v-2l9-2v-2l7-1-3 3-15 8-21 13-24 15-15 10-34 24-16 12-4 4 14-5 17-6 15-5h2v-2l13-4 24-8 16-6 51-18h3v-2l11-3 3-1v10l-25 12-19 10-28 14-19 10-6 2v2l4 2 9 8 6 10 4 11 1 12-2 8 24-9 38-15 10-4h3v11l-52 18-27 9v7l75-24h4l1 80-1 6h2l-1 3v12 4l1 6-1 7 1 4v9l-2 4h2v3h-2l2 6-1 4 3-1-1 3h-3v13l-23 1-24 2-3-1h-10l-29 6-23 3-64 6-15 1h-16l4-1-1-2-15-3v-1h8l12 2h33l-1-7-7-8 4-2 8-6 5-5 11-9 15-13 10-8 6-8 2-5v-13l-4-6-5-4-8-3-21-1 3-2 17-6 9-4h3v-2l8-3 4 1 36 36 8 7 7 6 2 10-8 3-46 12-26 7-9 2v2h9l48-10 32-7h4l5 5 4 1h8l7-3 5-3 3-5v-14l-4-8-5-3v-2l-10-2-5-3-6-8-14-21-8-13-10-17-9-9-3-2v-2l-5 5-4 5-4 3h-3v-2l5-5 2-4h2l1-4 5-5 4-8v-6l-1-4h-10l-4-2 15-1 1-1v-9l-4-10-5-5-1-3-4-1-6-3-4-1h-14l-10 5-6 8-5 12 1 19 1 11-4-5-7-16-4-6 2-1-8-3h-13l-10 3-21 7-14 4-6 3-13 10-14 12-3 6-6 6-4 13-21 3-24 3-12 2v5l42-5 12-1v2l-17 6-8 4-29 10h-2l-1-2-1-23-1-16 8-5 16-8 29-14 44-22-10 2-48 13-43 12h-3l-8-18-10-19-14-19-11-12-8-7-5-5-5-4-12-6v-2l-5-2v-2l-6-1-1-3-5-1-6-3v-2l-4-2-25-9-24-6-6-1v-9l11-1-1-38-6-4-11-3-8-1h-31l-18 4-9 3v23l1 18 11-2 2-4h2v15l-24 7-21 8-13 7-4 1v-3h2v-2l4-1-7-11-6-8-4-5v-2l-9 3-19 14-10 9-4 3 2 4v3l3 1 4 7 8 11v2l5-2 1-3h3v2l-8 6-8 8-11 14-10 16-8 15-7 16h-1v-26l7-14 12-19 11-12-2-5-11-15v-12l7-8 7-7 17-13 12-8 8-1 8 4 11 13 6 8 21-7h4l-2-15v-38l4-4 16-6 20-4z" fill="#FAFAFB"/>
<path transform="translate(585,161)" d="m0 0h144l46 1 16 2 19 5 16 8 11 10-1 3-10 4-8 4h-3v2l-9 3-7 3h-3v2l-10 4-10 5-12 5-10 5-10 3v2l-10 4-6 3h-4v2l-13 5h-3v2l-12 4v-2l-5-2-21-14-7-5 4-3 21-12 33-17 37-18-36 12-56 19-14 5-9 2-38-25-17-11-6 2-15 10-22 14-16 10-33 21-11-7-10-7-15-10-11-6-6-1-8 3-7 10-14 21-2 1-24-7-1-44-3-6-9-6-13-4-17-2h-12l-22 3-14 4-12 5-1 2v38l1 15-16 5-9 3-11-13-7-9-7-3-8 1-12 8-13 10-12 11-5 6v12l13 18-2 4-9 10-13 21-6 12h-2v-82l1-17 3-16 5-13 6-11 11-13 14-10 11-5 15-4 11-2 13-1z" fill="#D00A0B"/>
<path transform="translate(329,287)" d="m0 0h12v10l-6 71-1 30-5 4h-2l-2 5-2 4v13l7 10 4 3 6 2h8l9-2v-2h2l1-3 3-3 3-7 17 4 19 4 15 2 15 1 35 1 1 2 10 2v-3h-8l-2-2 11-1 1-11h-30v-6l29-1v-11l-11 1-1-3 10-1-2-10-11 1v-4l10-1-3-9v-2l-6 2h-5v-2l8-3-1-5-3-7h3l4 7 5 11 4 17 2 18v15l-3 21-6 21-3 5-3 7-8 13-10 13-15 15h-3l2-4 11-10 9-11 11-17 7-17 4-11-14 3-16 3h-18l-24-3 23 10 25 12 9 4-1 4-9-2-28-9-36-10-15-4h-26l-4 1-13-5-10-4-24-7-16-4-33-5-34-2-1-3v-23l3-20 5-16 4-11 6-12 4-6h2l2-5 2-3h2l2-5 2-1v3l10 5-6-7-3-3 7-7 5-3 5-5h2l3 5 4 4-2-5-4-5 4-4 4-1 5 7 6 11 4 7 5-1 2-1-1-5-12-19-2-4 6-3h2l4 9 2 1-2-6v-4l-2-1 10-5 16-4z" fill="#FAFBFB"/>
<path transform="translate(310,799)" d="m0 0h402l1 2-15 5-54 14-99 27-30 8-10-1-45-12-71-19-22-6-42-11-16-5z" fill="#D10A0B"/>
<path transform="translate(332,251)" d="m0 0h22l17 2 22 5 20 7 14 6v2l6 2 15 10 11 9 6 5 7 9 4 4 11 16 3 5 5 7 4 11 4 8 5 16 3 18 1 11v26l-2 18-5 21-4 10-3 9-4 8h-2l-2 6-10 15-11 13-4 5-8 7-13 10-6 4h-2v2l-12 6h-2v2l-13 4-7 3-16 4-21 3h-31l-15-2-27-8-22-10-14-9-13-10-19-19-13-19-3-6v-9l6 5 3 6 2 2v3l3 1v3l3 1 1 4 3 1 4 6 11 11 13 10 15 10 8 4 7 3 15 6 15 5 15 2h25l17-2 19-5 9-4 9-2v-2l10-4h2v-2l11-7 11-8 5-5 6-5 4-5 5-5 9-12 6-11h2l2-6 6-14 5-16 3-16 1-8v-26l-3-19-5-17v-4h-2l-3-9-8-15v-2h-2v-3h-2v-3h-2l-1-4-4-2-3-4v-2h-3l1 4-6-5-7-8-8-6-1-2-4-2v-2h-3v-2h-3v-2h-3v-2l-5-1v-2l-5-1-5-3-11-5 3-1 15 6 15 9 13 9h2l-5-6-14-10-11-7-26-11-22-5-7-1h-36l-21 4-16 5-4 2 9-1 7-2h6l-4 2-19 7-19 10-14 10-14 12-10 11-12 17-3 6-2 7h-3l-1-3-2-1-2 6-7 19-4 16-2 13-1 23 2 17v6l-2-3-2-11-1-11v-25l2-15 4-17 8-20-1-2-2-2-4 7-8 19-5 21-2 18v19l2 18 4 17-1 3-4-14-3-17-1-9v-17l1-16 5-24 4-14 3-5 4-11 6-9 7-11 4-5h2l2-5 7-8 8-8 8-6 3-3h2v-2l12-8 17-9 20-8 15-4 16-3z" fill="#F5F7F8"/>
<path transform="translate(356,289)" d="m0 0h5l1 3-1 7h2l1-8 5-1 5 1v10l4-8 7 1 3 2-1 6-2 3h3l2-7 4-1 6 3-1 5-1 4 4-5 1-2 6 2 3 3-6 11-6 8v5l5-3 12-18 5 1 4 3-2 5-4 5-5 5-12 14-11 14-10 13-13 17-10 12 2 5 3 4v2l8-3 13-8 12-7 10-5 6-4h3v-2h3v-2l16-8 5-5 13-8 7-4 3 1 5 12 1 5-6 3h-3v2l11-2 3 7v4l-10 1v4l7-2 5 1 1 3v7l-10 1 2 2h10v11l-8 1h-21v6h30v11l-1 1-9 1 8 1v3l-10-1-1-3h-35l-23-2-22-4-21-6-1 5-3 5-3 3h-2v2l-9 3h-8l-9-4-6-7-3-5v-13l5-9 4-3 8-2h11l6 2v-32l-3-34-2-16v-10l4-14z" fill="#050607"/>
<path transform="translate(212,550)" d="m0 0 4 2v2l4 2 9 8 16 11 14 8 17 8 22 7 15 3 14 1h38l22-3 21-6 6-1v-2l11-3 41 11 32 8 22 5 7 2 9 1h5l2-2 1 2h3l2-2 1 3h3l1-3 2 1v2l6-2 4 1 4-4h2l1 2h2l1-3-3-1 4-1v2l6-2 4 2v-3l-7-1v-1l10 1 42 9 16 3 14 1h14l4 1 1-2 1 1h7v-4h-2v4l-5-1v-3h-2l-3-3v2h2v3l-5-2v3h-4v-3l-3-1v-2l4-3h3v2l5-2 4 1 20 2 31 5 8 2h22l-9-1-2-4 2-7-5-1v-1l12 1 48 9-1-1-25-11-5-2 4-1h4l1-6 3-5-2-1 12 1 40 7-2 2 6 2-1 6-2 8 1 3-2 1-29 2-34 1-55 1h-367l-41-1-7-1 1-2-1-6 6-1-144-2v-2l30-9 33-11 9-2-5-6-8-7-8-8-9-12z" fill="#455461"/>
<path transform="translate(341,285)" d="m0 0 12 1 17 2 17 4 21 9 12 7 8 5 10 9 11 11 4 6 5 5v3l3 1 1 5-9 6-16 10-2 3-10 5-3 2h-3v2h-3v2l-8 4-8 5-11 6-16 9-5 3h-4l-6-9 2-4 11-14 12-15 8-11 8-10 9-11 10-12h2l2-4 3-4v-2l-5-3h-3l-7 11-6 8-4 1-1-5 8-11 4-9-8-4-2 5-3 3-1-2 2-5v-3l-5-2h-3l-3 7h-3l2-5v-4l-5-2h-4l-3 8-2-1 1-10h-9l-2 8h-2v-9l-5-1-1 9-3 9v10l4 37 1 13v26l-1 6-6-1h-11l-6 1 1-31z" fill="#D00A0B"/>
<path transform="translate(348,641)" d="m0 0h33l8 2 7 5 2 8-2 15-3 7-5 6-4 2 1 6 7 15 5-12 5-16 5-12 7-21 4-5h23l7 56 1 9v10h-18l-2-14h-15l-5 13-1 1h-34l-4-11-5-15-5-1-1 17-2 10h-17v-10l7-56z" fill="#FAFAFB"/>
<path transform="translate(860,256)" d="m0 0h1v73l-12 5-27 11-26 10-8 3h-3l1-14-3-12-6-12-7-8-7-5v-2l21-11 66-33z" fill="#D10A0B"/>
<path transform="translate(401,282)" d="m0 0 9 2 16 8 11 7 10 7h2v-3l9 7 13 13 10 13 9 14 10 19 6 16 3 10 1 11 2-2v26l-2 18-5 21-4 10-3 9-4 8h-2l-2 6-10 15-11 13-4 5-8 7-13 10-6 4h-2v2l-12 6h-2v2l-13 4-7 3-16 4-21 3h-31l-15-2-27-8-22-10-14-9-13-10-19-19-13-19-3-6v-9l6 5 3 6 2 2v3l3 1v3l3 1 1 4 3 1 4 6 11 11 13 10 15 10 8 4 7 3 15 6 15 5 15 2h25l17-2 19-5 9-4 9-2v-2l10-4h2v-2l11-7 11-8 5-5 6-5 4-5 5-5 9-12 6-11h2l2-6 6-14 5-16 3-16 1-8v-26l-3-19-5-17v-4h-2l-3-9-8-15v-2h-2v-3h-2v-3h-2l-1-4-4-2-3-4v-2h-3l1 4-6-5-7-8-8-6-1-2-4-2v-2h-3v-2h-3v-2h-3v-2l-5-1v-2l-5-1-5-3-11-5z" fill="#C5D1DB"/>
<path transform="translate(423,587)" d="m0 0 17 4 38 10 29 7 13 3 7 2 9 1h5l2-2 1 2h3l2-2 1 3h3l1-3 2 1v2l6-2 4 1 4-4h2l1 2h2l1-3-3-1 4-1v2l6-2 4 2v-3l-7-1v-1l10 1 42 9 16 3 14 1h14l4 1 1-2 1 1h7v-4h-2v4l-5-1v-3h-2l-3-3v2h2v3l-5-2v3h-4v-3l-3-1v-2l4-3h3v2l5-2 4 1 20 2 31 5 8 2h22l-9-1-2-4 2-7-5-1v-1l12 1 48 9-1-1-25-11-5-2 4-1h4l1-6 3-5-2-1 12 1 40 7-2 2 6 2-1 6-2 8 1 3-2 1-29 2-34 1-55 1h-118l-104-1v-1h7v-4l-4-2-1-3-11-2h-136l3-2 11-4 25-5 16-5h3v-2z" fill="#5D6B78"/>
<path transform="translate(634,398)" d="m0 0h7l-6 7-16 12-8 8-4 8-1 3-1 18-8 5-23 8-19 10-11 8-1 2 5 1v2h2v3l4 2 1 4h2l2 4v4h2l3 5-1 2-5-4v-4l-3-1-3-6v-2l-3-1-5-5h-10l-4 1-1 2-3 1 2 4 2 1v3h-3l-1-2-3-1v3l4 1 2 6 5 7-1 2-3-3v-3l-3-1-4-4-4-1h-8v5l-3 1 4 1v2l5 1-1 2-4-1-1 1 3 1-1 4h-2v3h-4l3-6-5 1-1 4h-3v-2l-2-1 5-8h2v-5l4-5 2-5h2v-5l5-11 4-13 4-16 3-20 6-3 30-10 12-5 13-4 4-1 5 2h12l7-3 6-11z" fill="#F9FAFB"/>
<path transform="translate(230,347)" d="m0 0 1 2 5 1 4 3 12 6 4 3-1 5-2 2-6-1-4-2 6 10 5 11 4 4v2l3 1 4 10 6 8 4 5 9 9 11 8 14 9 9 2 2 2v3l-8 1-29-8-30-5-24-2-18-1-1-3v-23l3-20 5-16 4-11 6-12z" fill="#E1E8ED"/>
<path transform="translate(658,640)" d="m0 0h17l4 9 6 23v3l3-3 13-26 4-6h19l1 4-8 70-1 3h-19v-9l3-24-10 19-1 1h-12l-3-7-4-14-4 30-2 4h-18v-8l10-66z" fill="#D10A0B"/>
<path transform="translate(471,453)" d="m0 0h4l-3 11-5 12-5 10-11 16-11 12-8 7h-4l-8-7-9-9-15-11-17-11-21-12-15-7 2-4h26l44 12 33 10 8 3h3v-3l-12-5-27-13-17-7-1-2 25 3h18l20-4z" fill="#D10A0B"/>
<path transform="translate(789,640)" d="m0 0h32l11 4 6 7 1 2v13l-4 12-5 6-5 3 1 5 9 22v3h-21l-3-5-7-19-3-3-1 11-2 15-1 1h-19l1-13 6-50 1-11z" fill="#D10A0B"/>
<path transform="translate(571,201)" d="m0 0 2 1-9 16-3 5 8-2h5v19l-10 8-2 1-1 40-8-4-15-11-6 1-20 10-2-1 5-19 1-2-26 11h-3l2-5 12-22 25-16 19-13 19-12z" fill="#5F6D7A"/>
<path transform="translate(402,735)" d="m0 0h336l60 1 28 1 12 2-1 2-12 1-39 1-96 1h-75l-118-1h-75l-36-1-3-3 3-3z" fill="#D10A0B"/>
<path transform="translate(212,440)" d="m0 0 27 1 6 12 2 8v4l-16-2-1-5-8 3h-2l5 13 6 10 4 7 9 12 6 7 8 7 8 6 4-9 4-12 7 1 19 8 4 1 3-9 5-16 9 2 20 10-2 8-8 16-9-2-5-3-14-5-3 10-6 13-1 4 9 3 17 4 7-14 4-7 5 1 21 9v3l-5 5-5 7h2v2l-21-1-19-4-16-5-17-9-6-4-8-5v-2l-5-2-8-8v-2l-4-2-7-9-7-10-6-10-6-12-6-24z" fill="#D10A0B"/>
<path transform="translate(198,345)" d="m0 0 4 2-1 6-7 17-5 22-1 10v25l2 17 1 5 2-3v-7l2 1 5 22 2 5v5h2l3 9 3 6-1 6 1 6 7 12 10 13 18 18 17 12 16 9 20 8 21 6 15 2h31l26-4 17-5 7-3 3 1-18 8-17 5-26 4h-24l-22-3-20-5v-2h-5v-2l-7-1-13-6v-2l-5-1-13-8-14-11v-2l-4-2-7-6-7-8-6-7v-2h-2l-7-11-7-12-5-12-4-9-1-5-2-11-3-16-1-11v-19l2-18 5-21 9-22z" fill="#4B5A67"/>
<path transform="translate(244,641)" d="m0 0h18l-1 16-1 12h2l2-5 1-3h2l2-5 7-13 2-2h21l-4 7-11 16-6 9 1 8 4 9 4 12 3 8 1 6h-20l-7-20-2-7h-2l-2 4-2 10-2 13h-18l1-15 5-44z" fill="#F9FAFA"/>
<path transform="translate(321,257)" d="m0 0 6 1-1 4-8 2-1 1-15 2-19 7-17 8-12 8-16 13-11 11-11 14-7 11-5 10 2-1v2l3-3 4-9 7-12 7-9 5-3 8-10 10-8 11-8 12-6 15-8 3 1-4 2 9-1 7-2h6l-4 2-19 7-19 10-14 10-14 12-10 11-12 17-3 6-2 7h-3l-1-3-2-1-2 6-7 19-4 16-2 13-1 23 2 17v6l-2-3-2-11-1-11v-25l2-15 4-17 8-20-1-2-2-2-4 7-8 19-5 21-2 18v19l2 18 4 17-1 3-4-14-3-17-1-9v-17l1-16 5-24 4-14 3-5 4-11 6-9 7-11 4-5h2l2-5 7-8 8-8 8-6 3-3h2v-2l12-8h3l-3 3 6-2 16-8 15-6 18-4z" fill="#C6D2DC"/>
<path transform="translate(735,640)" d="m0 0h44l1 5-2 11-1 1h-26l-1 13h22l1 1v9l-2 6-24 1-1 14h27l-1 14-1 2h-46l-1-1 1-13 7-55 2-7z" fill="#D10A0B"/>
<path transform="translate(341,285)" d="m0 0 12 1 17 2 17 4 21 9 12 7 8 5 10 9 11 11 4 6 5 5v3l3 1 1 5-4-2-3-5-5 1-5 2v-2l5-4h2l-6-7-5 2-2 3-3-1 2-4 4-5-4-5-4-1-1 3-5 3 1-4 3-4-2-4-8-7-5-1-7 11-6 8-4 1-1-5 8-11 4-9-8-4-2 5-3 3-1-2 2-5v-3l-5-2h-3l-3 7h-3l2-5v-4l-5-2h-4l-3 8-2-1 1-10h-9l-2 8h-2v-9l-5-1-1 9-3 9v10l4 37 1 13v26l-1 6-6-1h-11l-6 1 1-31z" fill="#D00A0B"/>
<path transform="translate(207,640)" d="m0 0h14l12 2-1 12-1 2h-25l-4 4 1 5 1 3 9 3 10 5 7 6 1 6v10l-5 9-8 7-9 3h-30l-1-1v-9l3-6h26l3-1v-9l-14-7-5-2-7-7-2-5v-11l2-7 9-9z" fill="#F7F8F9"/>
<path transform="translate(509,641)" d="m0 0h44v9l-2 6-25 1-2 14h24l-1 11-1 3-24 1-2 15h26l-1 15h-45l7-58z" fill="#F9FAFB"/>
<path transform="translate(212,550)" d="m0 0 4 2v2l4 2 9 8 16 11 14 8 17 8 22 7 27 5-1 2-8 3-36 1h-27l-83-1v-2l30-9 33-11 9-2-5-6-8-7-8-8-9-12z" fill="#F0F3F5"/>
<path transform="translate(441,218)" d="m0 0 4 1 24 14 4 4 3 1 3 3 7 6-2 6-6 9-7 13-4 1-7-1v2l-6-1v-2l-4-2-4-4 1-4-2 4h-3v-2l-4-1-3-1v-2l-7-2-1-5 1-3-4-3 1-6 12-19z" fill="#040405"/>
<path transform="translate(574,640)" d="m0 0h50v10l-2 7h-15l-2 20-4 32-1 7-1 1h-19v-8l6-47 1-5h-14l-1-1v-8z" fill="#D10A0B"/>
<path transform="translate(480,640)" d="m0 0h17l6 1-1 11-1 3-18 1-4 2-3 7-3 22v11l3 3 19 1-1 10-1 4-7 1h-17l-6-2-8-9-1-2v-19l3-22 3-10 5-6 8-6z" fill="#F8F9FA"/>
<path transform="translate(212,440)" d="m0 0 27 1 6 12 2 8v4l-16-2-1-5-8 3h-2l5 13 6 10 4 7 9 12 6 7 8 7 13 10 13 8 18 8 17 4 7-14 4-7 5 1 21 9v3l-5 5-5 7h2v2l-21-1-19-4-16-5-17-9-6-4-8-5v-2l-5-2-8-8v-2l-4-2-7-9-7-10-6-10-6-12-6-24z" fill="#F7F2F3"/>
<path transform="translate(596,213)" d="m0 0 6 2 15 10 13 8 24 15 19 12 4 2-9 3v-2l-9-1-11-3-6 1-23 12-6-1 1-5 3-9-8-1-11-11v-2l7-1h11l-13-17-7-10z" fill="#5E6C79"/>
<path transform="translate(629,640)" d="m0 0h18l1 5-9 70-1 2h-19v-8l3-21 5-44z" fill="#D10A0B"/>
<path transform="translate(423,587)" d="m0 0 17 4 38 10 24 6v1h-146l3-2 11-4 25-5 16-5h3v-2z" fill="#F5F7F8"/>
<path transform="translate(386,736)" d="m0 0h200l1 3h18l4 1v2l-12 1h-175l-36-1-3-3z" fill="#FCFCFC"/>
<path transform="translate(357,289)" d="m0 0 5 1-1 9h2l1-8 5-1 5 1v10l4-8 7 1 3 2-1 6-2 3h3l2-7 4-1 6 3-1 5-1 4 4-5 1-2 6 2 3 3-6 11-10 14-2 3-5-2-5-4-6-3v-2l-4-1-6-4-10-5 1-14z" fill="#D00A0B"/>
<path transform="translate(293,735)" d="m0 0h94l-2 5v3h-139l-48-1-12-1-1-2 3-1 12-1 30-1z" fill="#D10A0B"/>
<path transform="translate(305,641)" d="m0 0h18l-4 37-5 38h-18l1-15 6-48z" fill="#FAFAFB"/>
<path transform="translate(622,337)" d="m0 0 4 1-19 10-78 39h-3l-5-19v-3l35-10 59-16z" fill="#D10A0B"/>
<path transform="translate(208,488)" d="m0 0 6 5 3 6 2 2v3l3 1v3l3 1 1 4 3 1 4 6 11 11 13 10 15 10 8 4 7 3 15 6 15 5 15 2h25l17-2 19-5 10-3 3 1-1 2-24 7-18 3-12 1h-13l-7-1h-8l4 3h-11l-24-7-22-10-14-9-13-10-19-19-13-19-3-6z" fill="#DFE6EC"/>
<path transform="translate(789,587)" d="m0 0 12 1 40 7-2 2 6 2-1 6-2 8 1 3-2 1-10 1h-14v-2l-4-1-1-2-10-3-23-10 4-1h4l1-6 3-5z" fill="#445360"/>
<path transform="translate(346,286)" d="m0 0 18 1 23 5 21 9 12 7 8 5 10 9 11 11 4 6 5 5v3l3 1 1 5-4-2-3-5-5 1-5 2v-2l5-4h2l-6-7-5 2-2 3-3-1 2-4 4-5-4-5-4-1-1 3-5 3 1-4 3-4-2-4-8-7-5-1-7 11-6 8-4 1-1-5 8-11 4-9-8-4-2 5-3 3-1-2 2-5v-3l-5-2h-3l-3 7h-3l2-5v-4l-5-2h-4l-3 8-2-1 1-10h-9l-2 8h-2v-9l-5-1-1 9-3 9v10l4 37 1 13v26l-1 5-4-1-1-33-2-28-3-36z" fill="#F3F5F7"/>
<path transform="translate(241,577)" d="m0 0h3v2h2v2l8 2 6 5-2 5 3 1 4 4-1 3h-2l-1 2-4 1h3v2h-63l-12-1 2-4 32-10 20-7h3l-2-4h3v-2z" fill="#E5ECF0"/>
<path transform="translate(288,274)" d="m0 0 3 1-4 2 9-1 7-2h6l-4 2-19 7-19 10-14 10-14 12-10 11-12 17-3 6-2 7h-3l-1-3-2-1-2 6-7 19-4 16-2 13-1 23 2 17v6l-2-3-2-11-1-11v-25l2-15 4-17 8-20 5-2v2l3-3 4-9 7-12 7-9 5-3 8-10 10-8 11-8 12-6z" fill="#D5DEE5"/>
<path transform="translate(750,604)" d="m0 0 12 1 48 9-1-1 3-1 1 3 4 1v2l-5 1-34 1-55 1h-52v-1l22-1 2-4h-2v3h-4v-4h-2v4l-5-1v-3h-2l-3-3v2h2v3l-5-2v3h-4v-3l-3-1v-2l4-3h3v2l5-2 4 1 20 2 31 5 8 2h22l-9-1-2-4 2-7-5-1z" fill="#5F6D7A"/>
<path transform="translate(349,470)" d="m0 0h3v2l6 2 18 10 1 1-1 10-5 16-5 1-24-13 5-19z" fill="#F7F8F9"/>
<path transform="translate(280,447)" d="m0 0 13 2 12 4 5 5 3 7v12l-1 7-6-1-13-4-8-3-4-1z" fill="#F7F8F9"/>
<path transform="translate(825,550)" d="m0 0 37 1 16 1v19l-2 1-50-8-8-2v-1h6l1-8z" fill="#5E6C79"/>
<path transform="translate(303,513)" d="m0 0 6 1 12 5 8 4 1 5-7 12-4 8-17-4-9-4 1-6 6-14z" fill="#030405"/>
<path transform="translate(312,487)" d="m0 0 9 2 20 10-2 8-8 16-9-2-5-3-13-5 1-6 4-10z" fill="#F7F8F9"/>
<path transform="translate(249,467)" d="m0 0 11 2 19 5-1 12-3 14-5-1-19-6-2-2z" fill="#F9FAFA"/>
<path transform="translate(689,593)" d="m0 0h7l6 4 1-2 13 1 41 7 11 2v1l-15-1 2 1-1 9 1 1 28 1v1l-19 1h-22l-8-2-8-1v-1l9-1-34-14-12-6z" fill="#C5D2DC"/>
<path transform="translate(718,573)" d="m0 0 16 2 50 9 11 2-4 2-2 5-2 7h-10l-31-13-27-12z" fill="#C4D1DB"/>
<path transform="translate(173,493)" d="m0 0 2 2 8 16 6 10 9 12 9 10 6 7 3 5 9 11 10 10 7 6v2l-9 2-16-16-7-8-11-14-11-17-11-23-4-11z" fill="#5A6875"/>
<path transform="translate(857,341)" d="m0 0h4v10l-21 6-37 12-20 6h-2l-1-7 10-4 36-12z" fill="#D10A0B"/>
<path transform="translate(330,526)" d="m0 0 5 1 21 9v3l-5 5-5 7h2v2l-21-1-19-4-4-2v-1l9 1 6 1 7-14z" fill="#F5F7F8"/>
<path transform="translate(734,346)" d="m0 0 11 2 8 3 13 1h3l-2 7-6 15-1-2-4-1-2-6-12 4-6-3-3-2h-3l-3-6v-3h2l3-7z" fill="#CD0F10"/>
<path transform="translate(792,547)" d="m0 0 70 3v1h-37l1 6-2 4-2 1 4 2-11-1-37-6-12-3v-2l20-2z" fill="#C4D1DB"/>
<path transform="translate(789,587)" d="m0 0 12 1 23 4-6 11-4 6-7 2-10-3-18-8 4-1h4l1-6 3-5z" fill="#5F6D7A"/>
<path transform="translate(417,589)" d="m0 0 4 2v2h-3v3h-2l-1 3h-3v3l-3 2h-3v2l4-1v2l56-1 29-1 7 2v1h-146l3-2 11-4 25-5 16-5h3v-2z" fill="#F2F5F7"/>
<path transform="translate(370,515)" d="m0 0 4 1 19 11v4l-11 12-4 1-10-3-10-5 7-12 2-5z" fill="#F7F8F9"/>
<path transform="translate(346,286)" d="m0 0 18 1-4 2h-4l-1 9-3 9v10l4 37 1 13v26l-1 5-4-1-1-33-2-28-3-36z" fill="#F4F6F7"/>
<path transform="translate(671,608)" d="m0 0h3v2l5-2 4 1 20 2 31 5 8 2 36 1v1l-55 1h-52v-1l22-1 2-4h-2v3h-4v-4h-2v4l-5-1v-3h-2l-3-3v2h2v3l-5-2v3h-4v-3l-3-1v-2z" fill="#586673"/>
<path transform="translate(469,754)" d="m0 0h10l5 4 2 8-1 11-4 5-9 1-5-3-2-4v-16z" fill="#F3F5F6"/>
<path transform="translate(584,406)" d="m0 0h3v2l-17 6-8 4-29 10h-2l-1-2v-19l3 4 15-1z" fill="#F0F2F4"/>
<path transform="translate(208,488)" d="m0 0 6 5 3 6 2 2v3l3 1v3l3 1 1 4 3 1 4 6 11 11 13 10 15 10 8 4 7 3 15 6 7 2v2h-7l-8-3-10-3-6-4-5-2-6-4-5-3-8-5-10-8-12-11v-2l-4-2-5-6-5-2-7-10-3-6z" fill="#EFF1F3"/>
<path transform="translate(423,754)" d="m0 0h7l5 14 4-14h6l2 6 1 22h-6l-2-12-3 7h-6l-2-8-2 13h-6l1-21z" fill="#F2F4F6"/>
<path transform="translate(502,754)" d="m0 0 7 2 2 2v8l-3 3 3 1v8l-4 4h-15v-27z" fill="#F4F5F7"/>
<path transform="translate(288,274)" d="m0 0 3 1-4 2 9-1 7-2h6l-4 2-19 7-19 10-14 10-14 12-5 5h-3l-2-4 5-5 6-7 10-8 11-8 12-6z" fill="#E4EBEF"/>
<path transform="translate(454,232)" d="m0 0h2l-1 5v1l2-4 6 2v3l5 1 4 3-1 4-3 4h-2l-1 4-6 8-8-6-3-3-3-1-3-3 10-15z" fill="#46525D"/>
<path transform="translate(342,189)" d="m0 0 16 1v29l-16-2z" fill="#BDCAD4"/>
<path transform="translate(541,754)" d="m0 0h12l6 3 1 1v9l-2 3h-2l5 11-2 2-6-2-4-8-2-1v10h-6z" fill="#F2F4F6"/>
<path transform="translate(682,754)" d="m0 0h7l3 5 3 8 1-12 1-1h5v28h-7l-6-13-1 13h-6z" fill="#F8F9FA"/>
<path transform="translate(227,243)" d="m0 0h2l8 12v3l4 2 2 5-1 5-5 4h-3l-3-4h-3l-8-11-5-7h3v-3h3v-2z" fill="#73818D"/>
<path transform="translate(406,508)" d="m0 0h3v2l4 2 11 11 1 3-14 9-6-1-5-3v-2l-4-1 8-15z" fill="#F4F5F6"/>
<path transform="translate(293,269)" d="m0 0 3 1-3 4-9 3-11 6-17 9-14 12-5 5-6 7-6 4-4 6-8 13-4 10h-4l-2 2 1-5 8-14 11-14 11-12 7-7 13-10 16-10z" fill="#F7F8FA"/>
<path transform="translate(662,370)" d="m0 0v3l-12 12-3 5-9 2-12 1-1-8h2l1-3 16-8 3-2z" fill="#F4F6F7"/>
<path transform="translate(570,754)" d="m0 0h3v11h6v-11h7v28h-6l-1-1v-10h-6v11h-6v-27z" fill="#EFF1F3"/>
<path transform="translate(642,754)" d="m0 0h5l1 1 1 10 5 1v-8l1-3h6v27h-7v-11h-5v11h-7z" fill="#F0F2F4"/>
<path transform="translate(600,754)" d="m0 0h7l6 21 1 7h-7v-4l-7 1-1 3h-7l3-14 3-12z" fill="#F2F5F6"/>
<path transform="translate(415,567)" d="m0 0 3 1-18 8-17 5-26 4h-24l-22-3-20-5v-2l9 1 23 4 3 1 22 1-14-1v-1l31-1 26-4 17-5z" fill="#5A6875"/>
<path transform="translate(400,754)" d="m0 0h9l7 28h-7l-1-4-7 1-1 3h-7z" fill="#F5F7F8"/>
<path transform="translate(202,331)" d="m0 0 1 3-6 11-4 10-7 17-5 21-2 18v19l2 18 4 17-1 3-4-14-3-17-1-9v-17l1-16 5-24 4-14 3-5 4-11z" fill="#DAE2E7"/>
<path transform="translate(306,754)" d="m0 0h6v11h2l1-5 3-5 3-1 4 1-2 5-3 5 1 4 5 13h-7l-5-10-2 10h-6z" fill="#F6F7F8"/>
<path transform="translate(219,514)" d="m0 0 5 1 6 7 5 5 12 11 9 7 6 3 5 3 7 5 14 6-3 3-2 1-16-8-11-7-13-10-19-19z" fill="#E0E7ED"/>
<path transform="translate(219,462)" d="m0 0 2 1 4 11 6 10 4 7 9 12 6 7 8 7 13 10 13 8 18 8 4 2-4 1-10-3-17-9-6-4-8-5v-2l-5-2-8-8v-2l-4-2-7-9-7-10-6-10-6-12z" fill="#E9ECEF"/>
<path transform="translate(716,754)" d="m0 0h8l3 1v4l-9 1-2 4 1 12 4 1 1-6h-2v-4h8v14l-5 2h-9l-4-4-1-3v-17l4-4z" fill="#F3F5F6"/>
<path transform="translate(877,495)" d="m0 0h1v26l-11 1h-27l-1-2h2l-2-4 10-2h11v-13l3 1h-2v10h15z" fill="#5F6D7A"/>
<path transform="translate(516,523)" d="m0 0 9 1v3h-3v4h-4v3l5-1v3h-2v2h-3v-3h-4v3l5 1-1 4 2-1v-2h5l-1-4h4v-4l5-1-3 6h-2v3l4-1-1 5 2 1v2h10v-2l-3-1v-2l9 1 1 3-4 2 2 2h-11l-13-1-6-2-3-2v3h-3l2-5-4-1v-3l-2-1h2l1-3 4-4-2-2v-3h2v2l4 1v-2h2v-2l-5-1z" fill="#586673"/>
<path transform="translate(328,265)" d="m0 0h36l26 5 8 3-4 1-11-2-1-1-22-2h-29l-18 1-5 1h11v2l-5 2h-11l-12 3h-5l3-3 11-4 16-4z" fill="#556370"/>
<path transform="translate(320,602)" d="m0 0h50l-4 2-7 3 104 1v1h-109v-2l-12 1-3 1h-21l-2-2 8-3z" fill="#5F6D7A"/>
<path transform="translate(371,754)" d="m0 0h16v5l-9 1v5l8 1v5h-9v6h11v6l-17-1z" fill="#F4F6F7"/>
<path transform="translate(286,754)" d="m0 0h8l3 1v5h-8l-2 4 6 2 6 5v7l-4 4-2 1h-9l-3-1 1-5h10l-2-4-9-6-1-1v-8l3-3z" fill="#F3F5F7"/>
<path transform="translate(729,277)" d="m0 0 2 1-3 3 1 3-5 3 1 3 3 1-2 2 2 2-30 10-7 2 1-3 19-14 17-12z" fill="#22292F"/>
<path transform="translate(520,754)" d="m0 0h12l2 1v4l-9 1v5l8 1-1 5h-8v7h10v4h-16v-27z" fill="#F7F8F9"/>
<path transform="translate(278,302)" d="m0 0h2l10 15 6 10-1 4-4 2-4-1-8-14-7-11 4-4z" fill="#0E1012"/>
<path transform="translate(341,408)" d="m0 0h7l5 4 1 2v7l-5 5-2 1h-6l-5-4-1-2v-7l4-5z" fill="#D10A0B"/>
<path transform="translate(345,754)" d="m0 0h20v6h-6v23h-7v-23h-7z" fill="#E5E8EB"/>
<path transform="translate(369,655)" d="m0 0 8 1 2 3v8l-3 7-2 1h-11v-12l1-7z" fill="#090B0C"/>
<path transform="translate(212,550)" d="m0 0 4 2v2l4 2 9 8 16 11 14 8 10 5-1 4-6 1v-4l-5-2v-2l-8-1v-2l-3-1v-2h-2v2l-6-2-10-9-7-7-9-12z" fill="#EDF0F3"/>
<path transform="translate(520,496)" d="m0 0 4 1v2l6 1v3h-3l-1-2-3-1v3l4 1 2 6 5 7-1 2-3-3v-3l-3-1-4-4-4-1h-8v5l-3 1 4 1v2l5 1-1 2-4-1-1 1 3 1-1 4h-2v3h-4l3-6-5 1-1 4h-3v-2l-2-1 5-8h2v-5l4-5 2-5 3 3v2h3l-1-5h4z" fill="#A7B3BD"/>
<path transform="translate(805,656)" d="m0 0h10l3 3v10l-3 5-3 1h-9l-1-4 2-14z"/>
<path transform="translate(649,604)" d="m0 0h2v3l3 1v3h2v-3h4l-1 3h-2v3l-3 3h3v-2l4-1v-3h2v-4h-2v-2l9 1 8 1-2 3h-2v-2l-5 3h-2l3 3v3h4v-3l5 2v-3h-2v-2l3 1v2h2l1 3 4 1v-4h2v4l4 1h-11-2-23l-7-2 1-2h2v-3l-3-1-2-6z" fill="#B6C3CD"/>
<path transform="translate(626,754)" d="m0 0h7l2 1v4l-8 2v15l1 1 7 1v4l-8 1-5-2-3-5v-15l3-5z" fill="#F1F4F6"/>
<path transform="translate(212,413)" d="m0 0h29l1 5-2 4h-11l-17-1z" fill="#0C0E10"/>
<path transform="translate(193,439)" d="m0 0 2 1 5 22 2 5v5h2l3 9 3 6-2 8-3-4v-7l-2-6-2-1 1 4-3-1-3-9-4-13v-11l1-1z" fill="#9FACB7"/>
<path transform="translate(231,350)" d="m0 0h5l4 3 12 6 4 3-1 5-2 2-6-1-10-6v-2l-7-2-1-5z" fill="#0A0C0D"/>
<path transform="translate(465,359)" d="m0 0 5 5 5 13 3 9 2 9 1 14-1 5h-1v-11l-11 1-1-3 10-1-2-10-11 1v-4l10-1-3-9v-2l-6 2h-5v-2l8-3-1-5-3-7z" fill="#DFE5EA"/>
<path transform="translate(227,317)" d="m0 0 4 1v2l2 1-10 13-8 12-3 10h-3l-2-5 4-8 3-7 6-10z" fill="#E0E7ED"/>
<path transform="translate(417,309)" d="m0 0 6 1 5 3 10 9 11 11 4 6 5 5v3l3 1 1 5-4-2-3-5-5 1-5 2v-2l5-4h2l-6-7-5 2-2 3-3-1 2-4 4-5-4-5-4-1-1 3-5 3 1-4 3-4-2-4-8-7-5-2z" fill="#EBEEF0"/>
<path transform="translate(480,409)" d="m0 0 2 4v15l-1 10h-1l-1-6 1-11h-30v-6l30-1z" fill="#F0F3F5"/>
<path transform="translate(837,514)" d="m0 0h12v1l-8 1-1 5 15 1v1l-40 1v-5l-4-2 4-1z" fill="#C3D0DA"/>
<path transform="translate(320,256)" d="m0 0 17 1-2 5-6 1 31 1v1l-32 1-21 4-10 3-3-1 2-4 12-3 9-1 3-2 6-1-1-3h-12v-1z" fill="#DBE3E9"/>
<path transform="translate(346,223)" d="m0 0h11v21l-1 1h-8l-1-1z" fill="#C4D1DB"/>
<path transform="translate(328,191)" d="m0 0h9l1 25h-9l-1-10z" fill="#C5D2DC"/>
<path transform="translate(198,345)" d="m0 0 4 2-1 6-7 17-2 7-2-1-1 3-3 1-2-1 2-9 8-20z" fill="#606E7B"/>
<path transform="translate(271,595)" d="m0 0h2l-2 5h2v-2h3v-3l3 1v2l5-3 7 1-4 6h3v-2l9 1 3 2h5l-1 2-24 1h-4v-2h-2v2h-3l1-3h2v-2h-3v2h-2v-2l-4-1 2-3h2z" fill="#E8EEF2"/>
<path transform="translate(580,604)" d="m0 0 10 1 3 2 5 1-2 5 3 1v3l-4-1v-3h-2v3h-4v-2h-2v2l-4-1-3-1v2h-5l-2 1-5-1-1-3 3-3h2l1 2h2l1-3-3-1 4-1v2l6-2 4 2v-3l-7-1z" fill="#354049"/>
<path transform="translate(475,455)" d="m0 0h1l-1 8-2 7-3 5-3 7-8 13-10 13-15 15h-3l2-4 11-10 9-11 11-17 7-17z" fill="#F3F5F7"/>
<path transform="translate(668,755)" d="m0 0h7v27h-7z" fill="#EDF0F3"/>
<path transform="translate(426,658)" d="m0 0h2l1 29-1 1h-8l-2-1 2-9z" fill="#16191D"/>
<path transform="translate(192,486)" d="m0 0 3 3 7 14 12 17 14 15 13 12 15 10 10 6-3 1-15-9-14-11v-2l-4-2-7-6-7-8-6-7v-2h-2l-7-11-7-12-2-4z" fill="#A9B6C1"/>
<path transform="translate(218,249)" d="m0 0 5 1 3 3 3 5 3 4v2h2l1-3 1 4-2 5-1 2-2-2h-3l-8-11-5-7h3z" fill="#4C5964"/>
<path transform="translate(657,429)" d="m0 0h5l7 5v2l6 1v3l-1 4-2 4h-2v2h-2l-4-5-3-1v-3h-2v-2l4-1 1 1 1-2h-2v-2h-2v-2h-2l-1-2z" fill="#2B333B"/>
<path transform="translate(411,304)" d="m0 0 4 1 5 3-3 1-2 6-7 10-5 6h-3l-1-5 8-11 4-9z" fill="#F1F4F5"/>
<path transform="translate(860,351)" d="m0 0h1v77h2v4h-2v4h2l-1 5-1 3h2v4h3v4h-3v4h3v4h-3l-1 2-2-3 1-6-1-1v-12l2-3h-2z" fill="#4C5964"/>
<path transform="translate(641,525)" d="m0 0h8l12 2h33v2l3 1-28 2h-16l4-1-1-2-15-3z" fill="#E7EDF1"/>
<path transform="translate(333,755)" d="m0 0h6v27h-6z" fill="#FAFBFB"/>
<path transform="translate(462,242)" d="m0 0 2 1-4 7 3-3 4-5 5 1-1 4-3 4h-2l-1 4-6 8-6-5 1-3 4 1v-3l-3 1v-3h2v-3l4-4z" fill="#75828F"/>
<path transform="translate(516,523)" d="m0 0 9 1v3h-3v4h-4v3l5-1v3h-2v2h-3v-3h-4v3l5 1-2 4 3 1-1 2-4-1v3h-3l2-5-4-1v-3l-2-1h2l1-3 4-4-2-2v-3h2v2l4 1v-2h2v-2l-5-1z" fill="#697682"/>
<path transform="translate(403,561)" d="m0 0 3 1-1 2-24 7-18 3-29-1v-1l23-1 17-2 19-5z" fill="#DDE5EB"/>
<path transform="translate(288,274)" d="m0 0 3 1-4 2 9-1 7-2h6l-4 2-19 7-8 4h-2l-1-2-5 2v-3l10-6z" fill="#D4DEE5"/>
<path transform="translate(316,191)" d="m0 0h5l1 27-5 1-1-1-1-26z" fill="#5E6C79"/>
<path transform="translate(361,191)" d="m0 0 5 1v28h-6z" fill="#D5DEE6"/>
<path transform="translate(285,563)" d="m0 0 9 1 8 3h9l6 2-4 2-5 2-3 1-15-5-5-2-1-3z" fill="#D9E2E9"/>
<path transform="translate(205,348)" d="m0 0 1 2 2 1-4 7-7 19-5-1 2-9 7-17z" fill="#DCE4EA"/>
<path transform="translate(332,266)" d="m0 0h31l18 2 15 4 2 2-8-1-7-1-1-1-22-2-29-1z" fill="#445360"/>
<path transform="translate(671,608)" d="m0 0h3v2l5-2 4 1 11 1-2 3h-2v-2h-3l1 3-1 4-5-1v-3h-2l-3-3v2h2v3l-5-2v3h-4v-3l-3-1v-2z" fill="#5D6A77"/>
<path transform="translate(230,347)" d="m0 0 1 2 3 1-3 1-1 6 7 3v1h-8l5 5v4l-5-1-6-3 1-7 3-7z" fill="#C3CAD0"/>
<path transform="translate(223,320)" d="m0 0 1 2-4 5-6 11-6 12-3-1-2 2 1-5 8-14 8-10z" fill="#F2F5F7"/>
<path transform="translate(417,589)" d="m0 0 4 2v2h-3v3h-2l-1 3h-3v3l-3 2-4-1-2-1v2h-3v-3l5-2h3l-2-4-2-1 10-2v-2z" fill="#E4E8EC"/>
<path transform="translate(501,426)" d="m0 0h1v8l-3 26-1 2-2 3-4 10-2 1 1-7 4-13 3-16 1-8z" fill="#DDE5EB"/>
<path transform="translate(238,287)" d="m0 0h3l-1 4-10 9h-2v2l-5 5-8 9h-2l1-5 7-8 8-8 8-6z" fill="#D2D9DE"/>
<path transform="translate(500,527)" d="m0 0 7 1 5 2v3l-5-1-4-1 1 2 4 1-1 4h-2l2 4h-3v-3h-5v2l-3-1v-2h3l-1-4-2-1 1-4h3z" fill="#636D76"/>
<path transform="translate(193,439)" d="m0 0 2 1 5 22 1 5v7l-4-5-5-17v-5l1-1z" fill="#7B8995"/>
<path transform="translate(419,288)" d="m0 0h5l1 2 5-1 16 12 5 7-6-2-14-10-12-7z" fill="#46535F"/>
<path transform="translate(233,488)" d="m0 0 7 1 8 3-2 14-5-5-8-12z" fill="#CF0B0C"/>
<path transform="translate(474,759)" d="m0 0 4 1 1 1v14l-2 2-5-1v-15z" fill="#0E1113"/>
<path transform="translate(422,257)" d="m0 0h5l2 3 6 2v2l4 1 3 1v2h3l2-5 2-1-2 7 7 5v2l6 1-2 1-1 2-9-5v-2l-5-2v-2l-6-1-1-3-5-1-6-3v-2l-3-1z" fill="#A7B4BF"/>
<path transform="translate(542,485)" d="m0 0 1 2 5 1v2h2v3l4 2 1 4h2l2 4v4h2l3 5-1 2-5-4v-4l-3-1-3-6v-2l-3-1-5-5-6-1z" fill="#8E9BA6"/>
<path transform="translate(599,610)" d="m0 0h15l14 3 2 3h-15l-3-1-1 2h-3v-3h-2l-1-2h-6z" fill="#43515D"/>
<path transform="translate(504,515)" d="m0 0h4v2l8-1v3l-4-1-1 1 3 1-1 4h-2v3h-4l3-6-5 1-1 4h-3v-2l-2-1z" fill="#A5AFB7"/>
<path transform="translate(217,559)" d="m0 0 4 2 7 8 7 7 7 6v2l-9 2-7-7h3l5 4v-4-2l-4-2v-2l-4-2-2-4-4-2-3-4z" fill="#4B5966"/>
<path transform="translate(510,432)" d="m0 0h1v10l-4 19-5 16-4 8-1-3 6-18 4-14 2-17z" fill="#DBE3E9"/>
<path transform="translate(291,575)" d="m0 0 9 1 23 4 4 2v2l-16-2-20-5z" fill="#5A6875"/>
<path transform="translate(301,573)" d="m0 0 7 1 11 3 15 2v2h22v1l-13 1-17-1-13-3-2-2-10-3z" fill="#4E5C69"/>
<path transform="translate(670,385)" d="m0 0h10l-1 4-11 4h-5l4-2 6-1v-2l-24 3-4-1h2l1-2z" fill="#5C6A77"/>
<path transform="translate(360,288)" d="m0 0h10l11 3 1 2-4 1-3 8-2-1 1-10h-9l-2 8h-2v-9z" fill="#F7F8F9"/>
<path transform="translate(401,282)" d="m0 0 9 2 16 8 11 7 3 3h-2l-1 2-1-3h-3v-2h-3v-2h-3v-2l-5-1v-2l-5-1-5-3-11-5z" fill="#C0CBD3"/>
<path transform="translate(184,602)" d="m0 0h7l-4 2 10 1 24 1v1h-49l2-2z" fill="#F9FAFA"/>
<path transform="translate(404,568)" d="m0 0h3l-1 3-11 4-16 2-7 1h-9v-1l19-3 18-4z" fill="#E0E7ED"/>
<path transform="translate(249,467)" d="m0 0 3 1h-2v17h2l1-4 2 4 3 2 1 4-3 2-2 1-5-3z" fill="#E3EAEF"/>
<path transform="translate(710,291)" d="m0 0 1 3-8 5 6-2v2l2 2-18 6h-2l1-3z" fill="#353F48"/>
<path transform="translate(276,265)" d="m0 0 2 1v3l-22 11-3-1 6-6z" fill="#EFF2F4"/>
<path transform="translate(237,258)" d="m0 0 4 2 2 5-1 5-5 4h-3l-1-6 4-5z" fill="#CCD6DE"/>
<path transform="translate(417,309)" d="m0 0 6 1 5 3 10 9 3 4h-3l-4-1-1 3-5 3 1-4 3-4-2-4-8-7-5-2z" fill="#E9ECEF"/>
<path transform="translate(475,455)" d="m0 0h1l-1 8-2 7-3 5-3 7-4 5v-4l7-16 4-11z" fill="#E9ECEF"/>
<path transform="translate(704,448)" d="m0 0 3 1-16 8-18 18-4 1 5-6 6-5 7-8 8-6z" fill="#53626F"/>
<path transform="translate(465,359)" d="m0 0 5 5 4 10v5h-2l-1-4-6 2h-5v-2l8-3-1-5-3-7z" fill="#E6EBEF"/>
<path transform="translate(460,237)" d="m0 0h2l-1 4-3 5-1 5h-2l1 2h2v3l-3 1-1-1-2 2-3-2 1-5 4-5 2-4h2z" fill="#63717E"/>
<path transform="translate(877,495)" d="m0 0h1v26h-11l2-2h4v-6h-12v-1h15z" fill="#465562"/>
<path transform="translate(531,531)" d="m0 0 2 1-3 5h-2v3l4-1-1 7-9-1-2-5h5l-1-4h4v-4z" fill="#707C86"/>
<path transform="translate(657,429)" d="m0 0h5l7 5v2l6 1v3l-1 4-3-1-1-3h2v-2l-5-1v3h-2v-3h-2v-2h-2v-2h-2l-1-2z" fill="#3D4954"/>
<path transform="translate(642,605)" d="m0 0h2v2h3v5l3 1-2 4h-8l-4-2 4-1v-3h-2v-3h3v3h2l1-3h-2z" fill="#AAB6C0"/>
<path transform="translate(492,368)" d="m0 0 2 2 5 14 2 9v11h-1v-5h-2l-3-17-3-9z" fill="#D9E2E9"/>
<path transform="translate(489,499)" d="m0 0 1 3-10 15-11 13-4 2 6-8 10-13z" fill="#DEE6EB"/>
<path transform="translate(716,290)" d="m0 0m-5 1h5v2l3 3-3 3-8 1 1-3h-2l-1 2-4 1 5-5 4-1z" fill="#0D0F12"/>
<path transform="translate(770,349)" d="m0 0 2 2-1 9-6 9h-3l6-15 1-2-2-1h3z" fill="#25282E"/>
<path transform="translate(320,256)" d="m0 0 17 1-2 5-6 1h-9v-1l6-1-1-3h-12v-1z" fill="#E3EAEF"/>
<path transform="translate(288,274)" d="m0 0 3 1-4 2 4 2-16 6-5 2v-3l10-6z" fill="#C5D2DC"/>
<path transform="translate(320,602)" d="m0 0 40 1v1l-24 1v1l-16 1 1-2 3-1z" fill="#4C5A67"/>
<path transform="translate(525,529)" d="m0 0 2 1v2h-3v3l2 1h-2l1 4h-5l1 3-5 1 3-5-5-1v-3h4v3h3v-2h2l-1-2h-4v-3z" fill="#D8E0E6"/>
<path transform="translate(492,605)" d="m0 0 10 2v1h-57v-1z" fill="#D2DCE4"/>
<path transform="translate(516,523)" d="m0 0 9 1v3h-3v4h-4v3l5-1v3h-2v2h-3l-1-6-2-1-2-2v-3h2v2l4 1v-2h2v-2l-5-1z" fill="#7A8690"/>
<path transform="translate(285,563)" d="m0 0 9 1 8 3h9l6 2-4 2h-9l-13-5-6-2z" fill="#C5D2DC"/>
<path transform="translate(304,194)" d="m0 0h3l1 8v17l-2 1-1-3z" fill="#5D6B78"/>
<path transform="translate(737,347)" d="m0 0 8 1 8 3 13 1h3l-2 5-2 2-1-3-14-3-13-5z" fill="#F5F7F8"/>
<path transform="translate(361,191)" d="m0 0 4 2-2 24h-2z" fill="#A1AEB9"/>
<path transform="translate(861,462)" d="m0 0 6 4v3l-3 1-1 3 4 1-1 4h-3l-2 2v-10l-1-4z" fill="#5F6B76"/>
<path transform="translate(463,533)" d="m0 0v3l-7 7-15 11-3 1 2-4 14-10 5-5z" fill="#DFE7EC"/>
<path transform="translate(293,269)" d="m0 0 3 1-3 4-9 3-6 3h-2l1-4z" fill="#F4F6F8"/>
<path transform="translate(438,302)" d="m0 0 5 1 5 5 12 13-1 2-12-12-6-4-3-3z" fill="#DFE6EB"/>
<path transform="translate(235,542)" d="m0 0 8 6 13 9 10 6-3 1-15-9-14-11z" fill="#A7B4BF"/>
<path transform="translate(195,374)" d="m0 0h1l-1 9-2 6-3 3v-10l2-6h3z" fill="#E8EDF1"/>
<path transform="translate(357,571)" d="m0 0h14v2l-8 1-29-1v-1z" fill="#D3DDE5"/>
<path transform="translate(553,545)" d="m0 0 7 1v3l6 2v1l-18-1 3-5z" fill="#99A4AE"/>
<path transform="translate(461,563)" d="m0 0 3 1v3h-3v3l-5-1 1-3 4-1zm-7 6 4 2v2l-3 1-1 2h-3v-3l-2-1z" fill="#C6D0D8"/>
<path transform="translate(453,528)" d="m0 0h3v6l-4 2-5 2-4 3-2-1 4-5 5-5z" fill="#E0E7EB"/>
<path transform="translate(212,341)" d="m0 0h2v8l-2 7h-3l-2-5z" fill="#8794A0"/>
<path transform="translate(489,474)" d="m0 0 2 4-10 20-3 1 1-5 1-2h2l2-6z" fill="#D1DAE1"/>
<path transform="translate(454,232)" d="m0 0h2l-1 5-11 15-2-2 10-15z" fill="#556471"/>
<path transform="translate(398,298)" d="m0 0 6 1 7 4v2l-6-2-2-1-2 5-3 3-1-2 2-5z" fill="#F8F9FA"/>
<path transform="translate(661,605)" d="m0 0 9 1 8 1-2 3h-2v-2l-5 3-6 2-2 1v-3h2v-4h-2z" fill="#A4B1BC"/>
<path transform="translate(180,379)" d="m0 0h2v10l-2 12-2 2v-14z" fill="#E6EBEF"/>
<path transform="translate(448,262)" d="m0 0 1 2-2 5 7 5v2l6 1-2 1-1 2-9-5v-2l-4-2 2-7z" fill="#93A1AC"/>
<path transform="translate(225,249)" d="m0 0 3 1 6 9v5h-2l-6-8z" fill="#616F7B"/>
<path transform="translate(536,540)" d="m0 0h2v3l6 2-1 3-10-1v-5z" fill="#B0BAC2"/>
<path transform="translate(208,488)" d="m0 0 6 5v8h-2l-1 2-3-6z" fill="#DDE3E8"/>
<path transform="translate(202,472)" d="m0 0h2l3 9 3 6-2 8-3-4v-7l-3-9z" fill="#B7C4CE"/>
<path transform="translate(220,328)" d="m0 0 1 3-1 5-4 5-1 5h-1v-5h-2l2-5z" fill="#C5D2DC"/>
<path transform="translate(649,604)" d="m0 0h2v3l3 1v3h2v-3h4l-1 3h-2v3l-5 2 1-4-3-1-2-6z" fill="#8C98A3"/>
<path transform="translate(592,607)" d="m0 0 6 1-2 5 3 1v3l-4-1v-3h-2v3h-4l-1-3 2-1 2 1-1-3z" fill="#303B44"/>
<path transform="translate(641,525)" d="m0 0h8l12 2-1 4h9v1h-16l4-1-1-2-15-3z" fill="#C6D3DD"/>
<path transform="translate(503,533)" d="m0 0 5 1-1 4h-2l2 4h-3v-3h-5v2l-3-1v-2h3l1-3h3z" fill="#55616B"/>
<path transform="translate(212,519)" d="m0 0 6 5 7 8 8 8 2 1-1 2-11-9-7-8-4-5z" fill="#BCC8D2"/>
<path transform="translate(565,246)" d="m0 0 2 1-4 4-1 39-2-1 1-40z" fill="#C9D5DF"/>
<path transform="translate(327,582)" d="m0 0h16l5 1-2 2h-13l-6-1z" fill="#5D6B78"/>
<path transform="translate(372,267)" d="m0 0 9 1 15 4 2 2-8-1-7-1-1-1-8-1v-2z" fill="#4E5D6A"/>
<path transform="translate(364,604)" d="m0 0 2 1-1 1 29 1v1h-38l3-2z" fill="#DFE7EC"/>
<path transform="translate(217,559)" d="m0 0 4 2 7 8 7 7-3 1-2-4-4-2-2-4-4-2-3-4z" fill="#4E5C69"/>
<path transform="translate(599,610)" d="m0 0h15l-2 1 1 3-2 3h-3v-3h-2l-1-2h-6z" fill="#2E3740"/>
<path transform="translate(461,567)" d="m0 0h6v3h-3l-1 3h-2l-1 3h-2v-5l-3-1 3-2v2h3z" fill="#E1E7EC"/>
<path transform="translate(501,426)" d="m0 0h1v8l-2 16-3 1 2-19z" fill="#D7E1E7"/>
<path transform="translate(407,595)" d="m0 0h3l1 7-2 2-4-1-2-1v2h-3v-3l5-2h3z" fill="#D9E2E8"/>
<path transform="translate(658,528)" d="m0 0h17v1l9 1v1h-24v-2z" fill="#D9E2E8"/>
<path transform="translate(860,424)" d="m0 0 1 4h2v4h-2v4h2l-1 5-1 3h2v4h-2l-1 4v-12l2-3h-2z" fill="#697683"/>
<path transform="translate(360,288)" d="m0 0h10l2 2-3 1h-4l-2 8h-2v-9z" fill="#F9FAFB"/>
<path transform="translate(297,272)" d="m0 0 4 1 2 2-12 3h-5l3-3z" fill="#556471"/>
<path transform="translate(504,515)" d="m0 0 1 3 3 1-1 3h-2l-1 4h-3v-2l-2-1z" fill="#606B74"/>
<path transform="translate(193,439)" d="m0 0 2 1 2 10h-2l1 8-3-2-1-9 1-1z" fill="#44505C"/>
<path transform="translate(570,610)" d="m0 0h2l1 2 4-1 2 4-6 2-5-1-1-3z" fill="#303B44"/>
<path transform="translate(547,760)" d="m0 0h6l1 5-2 2h-5z" fill="#1F2429"/>
<path transform="translate(260,588)" d="m0 0 3 1-1 4 6-1-1 3h-2l-1 3h-2l-2-4-2-1 1-4z" fill="#F4F6F8"/>
<path transform="translate(542,485)" d="m0 0 1 2 5 1v2h2v4l-4-2-8-2z" fill="#BAC5CE"/>
<path transform="translate(289,297)" d="m0 0 2 1 4 9-1 3-4-3-2-5v-3l-2-1z" fill="#464F57"/>
<path transform="translate(318,192)" d="m0 0h2v16l-3-2v-13z" fill="#C5D2DC"/>
<path transform="translate(249,467)" d="m0 0 3 1h-2l1 22 4 1 1 3-6-2-1-1z" fill="#C3CCD4"/>
<path transform="translate(302,266)" d="m0 0h6v1l-5 1 4 2-10 3-3-1 2-4z" fill="#E4EAEF"/>
<path transform="translate(498,771)" d="m0 0h5l2 2-1 4-5 1z" fill="#1D2226"/>
<path transform="translate(290,600)" d="m0 0 9 1 3 2h5l-1 2h-12l-1-2-3-1z" fill="#E3EAEF"/>
<path transform="translate(271,595)" d="m0 0h2l-2 5h2v-2h3v-3l3 1v2l-3 3h-3v2h-2v-2l-4-1 2-3h2z" fill="#E3EAEF"/>
<path transform="translate(404,568)" d="m0 0h3l-1 3-11 4h-4v-2z" fill="#D5DFE6"/>
<path transform="translate(507,521)" d="m0 0h3l-3 6 3 1-7 1-4-2v-3h2v2l3-1 1-3z" fill="#DDE4E9"/>
<path transform="translate(670,481)" d="m0 0 3 1 11 14-1 2-11-12z" fill="#53616E"/>
<path transform="translate(216,379)" d="m0 0 7 3-1 4h-7z" fill="#DFE7EC"/>
<path transform="translate(237,258)" d="m0 0 4 2 2 5-1 5-1-2h-2v-3l-3-1 1-5z" fill="#A3B0BB"/>
<path transform="translate(660,605)" d="m0 0 1 2h2v4h-2v3l-4 1v2h-3l1-3h2v-3l3-3-3-1h3z" fill="#E1E8ED"/>
<path transform="translate(219,462)" d="m0 0 2 1 4 11 1 3h-3l-5-9z" fill="#D0D7DC"/>
<path transform="translate(243,329)" d="m0 0 5 1 6 6v2l-4-1-6-4z" fill="#293036"/>
<path transform="translate(319,606)" d="m0 0h10l5 1-1 2h-15l-2-2z" fill="#919EAA"/>
<path transform="translate(395,597)" d="m0 0 4 1v3l-3 3-3-1v-2l-6-1v-1z" fill="#E1E8ED"/>
<path transform="translate(499,482)" d="m0 0 1 2-6 12h-2l-2 4 1-6 5-9h2z" fill="#C4CED6"/>
<path transform="translate(201,477)" d="m0 0 3 1 2 6-1 6-3-3-2-7z" fill="#5E6C79"/>
<path transform="translate(293,443)" d="m0 0 17 4 1 2-9-1-9-3z" fill="#F0F3F5"/>
<path transform="translate(440,299)" d="m0 0 5 1 6 8-6-2-5-4z" fill="#54626F"/>
<path transform="translate(462,242)" d="m0 0 2 1-3 5-2 9-2 1 1-5-3 1v-3h2v-3l4-4z" fill="#909EA9"/>
<path transform="translate(464,239)" d="m0 0 4 1 3 3-5 1-4 6h-2l2-5v-3l2-1z" fill="#556370"/>
<path transform="translate(404,761)" d="m0 0 2 3 1 9-5-1 1-10z" fill="#565F67"/>
<path transform="translate(499,759)" d="m0 0 5 1v5l-5 1-1-1v-5z" fill="#20262B"/>
<path transform="translate(258,593)" d="m0 0 3 1 4 4-1 3h-2l-1 2-4-1v-3l4 1-4-5z" fill="#E3EAEF"/>
<path transform="translate(518,543)" d="m0 0 9 1 2 4-5 1-6-2 2-1v-2z" fill="#5A6976"/>
<path transform="translate(264,311)" d="m0 0 2 1 6 8-1 3-5-5-3-5z" fill="#313940"/>
<path transform="translate(223,253)" d="m0 0h3l3 5 3 4v2h2l1-3 1 4-4 2-7-10z" fill="#43515D"/>
<path transform="translate(520,540)" d="m0 0h7v3l4 1v2l-9-1z" fill="#95A1AB"/>
<path transform="translate(468,386)" d="m0 0h5v2h3l-1 2-11 1v-4z" fill="#CFD6DC"/>
<path transform="translate(734,336)" d="m0 0 5 1 15 6 2 2-10-2-12-6z" fill="#778591"/>
<path transform="translate(818,218)" d="m0 0h5l-3 3-10 5v-2l-3-1 9-2v-2z" fill="#84919D"/>
<path transform="translate(403,602)" d="m0 0 3 1-3 3 1 2h-10l2-1 1-3h6z" fill="#ECF1F4"/>
<path transform="translate(296,563)" d="m0 0 10 2 3 1v2h-7l-8-3z" fill="#E3E9EE"/>
<path transform="translate(462,486)" d="m0 0 1 3-7 10-2-1 2-4z" fill="#F4F6F8"/>
<path transform="translate(213,401)" d="m0 0h7l4 1v3h-7l-4-1z" fill="#39424B"/>
<path transform="translate(401,282)" d="m0 0 9 2 11 5v2l-9-3-11-5z" fill="#D1DBE3"/>
<path transform="translate(722,282)" d="m0 0 2 1-2 2 1 2-4 1-3 3-4 1v-3z" fill="#353F48"/>
<path transform="translate(670,609)" d="m0 0 4 3v5h-4v-3l-3-1v-2z" fill="#7B8894"/>
<path transform="translate(235,585)" d="m0 0h8l-1 2-6 3-2 2-4-3 4-2z" fill="#F6F8F9"/>
<path transform="translate(472,509)" d="m0 0v3l-7 7-4 5-2-1 7-9z" fill="#E1E8ED"/>
<path transform="translate(214,502)" d="m0 0 4 4 3 6-3 1-6-9h2z" fill="#DEE6EB"/>
<path transform="translate(215,388)" d="m0 0 8 1 3 1v3l-9-1-2-1z" fill="#414C56"/>
<path transform="translate(224,364)" d="m0 0 6 1 4 2v3l-5-1-6-3z" fill="#323B42"/>
<path transform="translate(465,359)" d="m0 0 5 5 2 7-3 1-5-12z" fill="#E3E8EC"/>
<path transform="translate(291,575)" d="m0 0 9 1 6 1v2h-8l-7-2z" fill="#72808C"/>
<path transform="translate(411,557)" d="m0 0 4 1-8 5-8-2z" fill="#CBD4DC"/>
<path transform="translate(822,459)" d="m0 0h4l3 5 2 3-1 4-6-8-2-1z" fill="#84919D"/>
<path transform="translate(196,461)" d="m0 0h2l2 2 1 4v7l-4-5z" fill="#4C5A67"/>
<path transform="translate(667,434)" d="m0 0h2v2l6 1v3l-1 4-3-1-1-3h2v-2l-5-1z" fill="#52606D"/>
<path transform="translate(452,244)" d="m0 0 1 2-1 2h-2v5l-4 1-1-2 2-5z" fill="#46525D"/>
<path transform="translate(452,240)" d="m0 0 4 2-2 6-4 3v-3h2v-3l-4 2 2-5z" fill="#22282E"/>
<path transform="translate(307,202)" d="m0 0h1v17l-2 1-1-3v-11z" fill="#4B5A67"/>
<path transform="translate(508,507)" d="m0 0 3 2v3l-3 1 4 1-1 3h-3v-2h-2v-5z" fill="#6F7B85"/>
<path transform="translate(316,191)" d="m0 0h5v8h-1v-7l-2 1-1 13h-1l-1-14z" fill="#505F6C"/>
<path transform="translate(602,763)" d="m0 0h2l1 10-5-1z" fill="#2F373D"/>
<path transform="translate(642,605)" d="m0 0h2v2h3l1 6h-2v3l-3-1 1-7h-2z" fill="#BAC3CA"/>
<path transform="translate(516,523)" d="m0 0 9 1v3h-3v4h-3v-4h2v-2l-5-1z" fill="#828E99"/>
<path transform="translate(477,397)" d="m0 0h1v6l-10 1-1-3 10-1z" fill="#909EA9"/>
<path transform="translate(525,529)" d="m0 0 2 1v2h-3v3l2 1-3 1-1-3h-4v-3z" fill="#C5CED5"/>
<path transform="translate(526,504)" d="m0 0 3 4v3l2 1 3 5-1 2-3-3v-3l-3-1-3-4v-2h2z" fill="#53616E"/>
<path transform="translate(520,496)" d="m0 0 4 1v2l6 1v3h-3l-1-2-3-1v3l3 1h-4z" fill="#586673"/>
<path transform="translate(228,458)" d="m0 0h2l1 5h-9v-3z" fill="#D10A0B"/>
<path transform="translate(498,389)" d="m0 0h2l1 4v11h-1v-5h-2z" fill="#DDE5EB"/>
<path transform="translate(729,277)" d="m0 0 2 1-3 3 1 3-4 2-4-1 4-5z" fill="#252D34"/>
<path transform="translate(315,271)" d="m0 0h4v2l-5 2-10-1v-1z" fill="#576673"/>
<path transform="translate(276,265)" d="m0 0 2 1v3l-9 3v-4z" fill="#EAEFF2"/>
<path transform="translate(189,387)" d="m0 0 2 4 2-2-1 10-2-4-1 5h-1v-8z" fill="#D0DAE2"/>
<path transform="translate(219,376)" d="m0 0 7 1 4 3-4 1-7-2z" fill="#37414A"/>
<path transform="translate(435,294)" d="m0 0 5 2 2 3h-2v2l-5-2-1-3z" fill="#495763"/>
<path transform="translate(315,291)" d="m0 0 3 1 1 9h-3z" fill="#2D353C"/>
<path transform="translate(293,269)" d="m0 0 3 1-3 4-6 1-1-3z" fill="#EEF2F5"/>
<path transform="translate(459,236)" d="m0 0h4l1 5h-2l-1 4-2 3h-2l2-6 3-5-3 1z" fill="#3F4B56"/>
<path transform="translate(514,532)" d="m0 0h3v3h-3v3l3 1-1 3-5-4v-3z" fill="#2A3137"/>
<path transform="translate(503,531)" d="m0 0 5 1 2 2v4h-2v2l-3 1v-3l2-1 1-3-5-1z" fill="#C4D0D9"/>
<path transform="translate(512,526)" d="m0 0 2 3 3 2-6 5h-2l1-3h2l-2-5z" fill="#E9EEF1"/>
<path transform="translate(704,448)" d="m0 0 3 1-15 7v-3l8-4z" fill="#4D5C69"/>
<path transform="translate(213,429)" d="m0 0h11v2l-4 1h-7z" fill="#4B5965"/>
<path transform="translate(254,322)" d="m0 0 4 1 5 6h-4l-5-5z" fill="#272F36"/>
<path transform="translate(697,300)" d="m0 0h2l1 4-9 3 1-3z" fill="#2C343A"/>
<path transform="translate(422,257)" d="m0 0h5l2 3 6 2-1 3-5-2-4-2v-2l-3-1z" fill="#7C8995"/>
<path transform="translate(456,248)" d="m0 0 1 3h-2l1 2h2v3l-3 1-1-1-2 2v-4z" fill="#44505C"/>
<path transform="translate(574,607)" d="m0 0h3v2h3l1 5-1 2-3-1h2l-3-4v-2l-3-1z" fill="#465461"/>
<path transform="translate(540,542)" d="m0 0 9 1 1 3-4 2h-3v-3l-3-1z" fill="#727E88"/>
<path transform="translate(463,533)" d="m0 0v3l-7 7-3-1 5-5z" fill="#DBE4EA"/>
<path transform="translate(679,527)" d="m0 0h15v2l3 1h-8v-2h-10z" fill="#CED9E2"/>
<path transform="translate(302,295)" d="m0 0 3 1 2 9h-3z" fill="#2B3238"/>
<path transform="translate(329,289)" d="m0 0h3v10h-2l-1-2z" fill="#343E46"/>
<path transform="translate(591,606)" d="m0 0 13 2 4 2-10 1-1-2-6-2z" fill="#546370"/>
<path transform="translate(696,593)" d="m0 0h7l5 1v1h-5l-1 3-5-2z" fill="#E3EAEF"/>
<path transform="translate(418,591)" d="m0 0h3v2h-3v3h-2l-1 3h-3v-3z" fill="#DDE5EB"/>
<path transform="translate(862,480)" d="m0 0 1 2h3l-1 4h-2l-1 3v-3h-2l1-4z" fill="#5D6A76"/>
<path transform="translate(467,434)" d="m0 0 11 1v3l-10-1z" fill="#D10A0B"/>
<path transform="translate(715,426)" d="m0 0 13 2v1h-19l3-2z" fill="#D7E0E7"/>
<path transform="translate(760,377)" d="m0 0 1 3-6 5h-3v-2l6-5z" fill="#CAD3D9"/>
<path transform="translate(212,341)" d="m0 0h2v5l-3 5h-2l1-6z" fill="#414C56"/>
<path transform="translate(238,287)" d="m0 0h3l-1 4-6 5v-3z" fill="#EBEFF1"/>
<path transform="translate(807,224)" d="m0 0h3v2l-6 4h-2v-2l-2-2z" fill="#D5DBE1"/>
<path transform="translate(254,584)" d="m0 0 3 1 3 4-2 4-4-1v-2h3v-2l-3-1z" fill="#E3EAEF"/>
<path transform="translate(435,542)" d="m0 0 2 1-4 5-5 2-2-2z" fill="#B6C1C9"/>
<path transform="translate(295,541)" d="m0 0 11 3-4 2-10-3z" fill="#D8DFE4"/>
<path transform="translate(473,521)" d="m0 0h2l-2 5-6 6-2-1z" fill="#E2E9EE"/>
<path transform="translate(468,477)" d="m0 0 1 2-5 8-2-1 2-5z" fill="#DFE3E6"/>
<path transform="translate(680,465)" d="m0 0v3l-7 7-4 1 5-6z" fill="#556370"/>
<path transform="translate(464,447)" d="m0 0 11 1v3l-10-2z" fill="#D10A0B"/>
</svg>
